<svg xmlns="http://www.w3.org/2000/svg" xmlns:xlink="http://www.w3.org/1999/xlink" width="32" height="32" viewBox="0 0 32 32">
  <defs>
    <clipPath id="clip-path">
      <rect id="Rectangle_4251" data-name="Rectangle 4251" width="32" height="32" fill="none"/>
    </clipPath>
  </defs>
  <g id="covid-shield-fill-mono" clip-path="url(#clip-path)">
    <g id="Group_15008" data-name="Group 15008" transform="translate(4 2.667)">
      <path id="Path_15767" data-name="Path 15767" d="M405.875,725.379H383.025c-.368,0-.533.112-.527.5.035,4.412-.081,8.824.061,13.235a10.72,10.72,0,0,0,2.255,6.121,16.144,16.144,0,0,0,3.005,2.919,25.815,25.815,0,0,0,6.344,3.827.818.818,0,0,0,.667-.009,25.124,25.124,0,0,0,5.333-3.067,20.822,20.822,0,0,0,3.612-3.2,11.41,11.41,0,0,0,2.7-7.608q.012-6.038.012-12.079C406.491,725.41,406.461,725.379,405.875,725.379ZM401.3,738.122a1.346,1.346,0,0,1-.093.1,1.12,1.12,0,0,1-1.583-.027.872.872,0,0,0-.575-.309h-.016a.766.766,0,0,0-.839.687,4.369,4.369,0,0,1-.141.533.641.641,0,0,0,.579.933c.143.023.3.021.429.056a.757.757,0,0,1,.087,1.444.683.683,0,0,1-.868-.277,3.031,3.031,0,0,0-.7-.8c-.132-.1-.215-.116-.328.017a3.732,3.732,0,0,1-1.023.8.462.462,0,0,0-.228.391,1.683,1.683,0,0,0,.565,1.529l.017.017a.941.941,0,0,1-1.321,1.339.934.934,0,0,1-.217-1.067,1.874,1.874,0,0,0-.1-1.5.338.338,0,0,0-.388-.243,3.2,3.2,0,0,1-.629-.033l-.02-.005a.944.944,0,0,0-1.148.679,4.448,4.448,0,0,0-.267,1.155l-.005.045a.756.756,0,0,1-.869.621l-.035-.008a.785.785,0,0,1-.583-.945.836.836,0,0,1,.372-.493,1.939,1.939,0,0,0,.739-1.556.4.4,0,0,0-.187-.367,4.023,4.023,0,0,1-.683-.713c-.135-.169-.159-.448-.5-.427-.449.027-.905-.016-1.217.407-.055.075-.1.153-.157.229a1.061,1.061,0,0,1-1.867-1.007l0-.005a1.029,1.029,0,0,1,1.367-.505,1.227,1.227,0,0,0,1.236-.1c.32-.216.557-.448.424-.808a3.854,3.854,0,0,1,.256-1.467.7.7,0,0,0-.653-1.013.862.862,0,0,1-.515-.165.737.737,0,0,1-.267-.816.7.7,0,0,1,.615-.543.727.727,0,0,1,.769.371c.048.077.073.169.117.251a.749.749,0,0,0,.135.209.73.73,0,0,0,1.032.047,4.667,4.667,0,0,1,.493-.329.992.992,0,0,0,.179-.137,1.026,1.026,0,0,0,.029-1.449c-.055-.057-.117-.107-.177-.159a.884.884,0,0,1-.088-.069.991.991,0,0,1-.1-1.4,1.122,1.122,0,0,1,1.556-.209.95.95,0,0,1,.083.06,1.02,1.02,0,0,1,.149,1.435.964.964,0,0,0,.111,1.352.4.4,0,0,0,.291.092,3.5,3.5,0,0,1,1.625.433.451.451,0,0,0,.507-.015c.415-.252.8-.489.856-1.052a.7.7,0,0,1,.749-.575.743.743,0,0,1,.716.621.7.7,0,0,1-.455.828,1.838,1.838,0,0,0-.981,1.076.351.351,0,0,0,.043.4,3.438,3.438,0,0,1,.409.812.814.814,0,0,0,.227.332.8.8,0,0,0,1.128-.075,2.318,2.318,0,0,0,.147-.187c.016-.021.032-.041.049-.061a1.13,1.13,0,0,1,1.593-.127l.027.023A1.212,1.212,0,0,1,401.3,738.122Z" transform="translate(-382.486 -725.379)" fill="#e64c00" opacity="0.24"/>
      <path id="Path_15768" data-name="Path 15768" d="M403.676,726.8q-4.822.012-9.644.008-4.86.008-9.723,0c-.24,0-.383.012-.383.327.035,3.788-.073,7.579.06,11.365a8.682,8.682,0,0,0,2.492,5.815,24.079,24.079,0,0,0,7.276,5.115.587.587,0,0,0,.551-.009,25.96,25.96,0,0,0,6.463-4.3,9.629,9.629,0,0,0,3.343-7.508q0-5.186.008-10.377C404.12,726.875,404.016,726.8,403.676,726.8Zm-2.856,10.845a1.346,1.346,0,0,1-.093.1,1.12,1.12,0,0,1-1.583-.027.872.872,0,0,0-.575-.309h-.016a.766.766,0,0,0-.839.687,4.369,4.369,0,0,1-.141.533.641.641,0,0,0,.579.933c.143.023.3.021.429.056a.757.757,0,0,1,.087,1.444.683.683,0,0,1-.868-.277,3.031,3.031,0,0,0-.7-.8c-.132-.1-.215-.116-.328.017a3.732,3.732,0,0,1-1.023.8.462.462,0,0,0-.228.391,1.683,1.683,0,0,0,.565,1.529l.017.017a.941.941,0,0,1-1.321,1.339.934.934,0,0,1-.217-1.067,1.874,1.874,0,0,0-.1-1.5.338.338,0,0,0-.388-.243,3.2,3.2,0,0,1-.629-.033l-.02-.005a.944.944,0,0,0-1.148.679,4.448,4.448,0,0,0-.267,1.155l-.005.045a.756.756,0,0,1-.869.621l-.035-.008a.785.785,0,0,1-.583-.945.836.836,0,0,1,.372-.493,1.939,1.939,0,0,0,.739-1.556.4.4,0,0,0-.187-.367,4.023,4.023,0,0,1-.683-.713c-.135-.169-.159-.448-.5-.427-.449.027-.905-.016-1.217.407-.055.075-.1.153-.157.229a1.061,1.061,0,0,1-1.867-1.007l0-.005a1.029,1.029,0,0,1,1.367-.505,1.227,1.227,0,0,0,1.236-.1c.32-.216.557-.448.424-.808a3.854,3.854,0,0,1,.256-1.467.7.7,0,0,0-.653-1.013.862.862,0,0,1-.515-.165.737.737,0,0,1-.267-.816.7.7,0,0,1,.615-.543.727.727,0,0,1,.769.371c.048.077.073.169.117.251a.749.749,0,0,0,.135.209.73.73,0,0,0,1.032.047,4.667,4.667,0,0,1,.493-.329.992.992,0,0,0,.179-.137,1.026,1.026,0,0,0,.029-1.449c-.055-.057-.117-.107-.177-.159a.884.884,0,0,1-.088-.069.991.991,0,0,1-.1-1.4,1.122,1.122,0,0,1,1.556-.209.95.95,0,0,1,.083.06,1.02,1.02,0,0,1,.149,1.435.964.964,0,0,0,.111,1.352.4.4,0,0,0,.291.092,3.5,3.5,0,0,1,1.625.433.451.451,0,0,0,.507-.015c.415-.252.8-.489.856-1.052a.7.7,0,0,1,.749-.575.743.743,0,0,1,.716.621.7.7,0,0,1-.455.828,1.838,1.838,0,0,0-.981,1.076.351.351,0,0,0,.043.4,3.438,3.438,0,0,1,.409.812.814.814,0,0,0,.227.332.8.8,0,0,0,1.128-.075,2.318,2.318,0,0,0,.147-.187c.016-.021.032-.041.049-.061a1.13,1.13,0,0,1,1.593-.127l.027.023A1.212,1.212,0,0,1,400.82,737.647Z" transform="translate(-382.009 -724.905)" fill="#e64c00"/>
      <path id="Path_15769" data-name="Path 15769" d="M390.284,734.8a.779.779,0,0,1-.733-.741.761.761,0,0,1,.736-.733.734.734,0,0,1,.743.727.254.254,0,0,1,0,.032.738.738,0,0,1-.744.717Z" transform="translate(-380.131 -722.732)" fill="#e64c00" opacity="0.48"/>
      <path id="Path_15762" data-name="Path 15762" d="M393.6,734.6a.584.584,0,0,1-.556.551.525.525,0,0,1-.551-.5.563.563,0,0,1,0-.083.485.485,0,0,1,.429-.533.449.449,0,0,1,.1,0,.523.523,0,0,1,.572.469A.542.542,0,0,1,393.6,734.6Z" transform="translate(-379.15 -722.495)" fill="#e64c00" opacity="0.48"/>
      <path id="Path_15770" data-name="Path 15770" d="M391.439,733.32a.4.4,0,0,1,.389-.411h.011a.427.427,0,0,1,.376.425.364.364,0,0,1-.323.4.373.373,0,0,1-.077,0,.368.368,0,0,1-.38-.356c0-.019,0-.039,0-.057Z" transform="translate(-379.503 -722.869)" fill="#e64c00" opacity="0.32"/>
      <path id="Path_15763" data-name="Path 15763" d="M390.905,735.821c-.3-.017-.479-.151-.476-.439s.149-.492.449-.488a.441.441,0,0,1,.479.4.508.508,0,0,1,0,.064.437.437,0,0,1-.409.461Z" transform="translate(-379.838 -722.208)" fill="#e64c00" opacity="0.6"/>
      <path id="Path_15765" data-name="Path 15765" d="M392.01,736.122c.255.028.433.151.436.393a.379.379,0,0,1-.36.4.274.274,0,0,1-.048,0,.365.365,0,0,1-.4-.329l0-.035a.393.393,0,0,1,.353-.428Z" transform="translate(-379.436 -721.798)" fill="#e64c00" opacity="0.32"/>
    </g>
  </g>
</svg>
