<svg id="discount-mono" xmlns="http://www.w3.org/2000/svg" xmlns:xlink="http://www.w3.org/1999/xlink" width="36" height="36" viewBox="0 0 36 36">
  <defs>
    <clipPath id="clip-path">
      <rect id="Rectangle_4346" data-name="Rectangle 4346" width="36" height="36" fill="none"/>
    </clipPath>
  </defs>
  <g id="discount-mono-2" data-name="discount-mono" clip-path="url(#clip-path)">
    <g id="Group_13926" data-name="Group 13926" transform="translate(1.5 1.5)">
      <path id="Path_11864" data-name="Path 11864" d="M330.152,295.907l-5.62-8.166a3.1,3.1,0,0,1-.291-2.94l.6-1.414,2.211-5.191a3.115,3.115,0,0,0-.2,1.319l.4,5.786.1,1.537a3.1,3.1,0,0,0,.241,1l2.544,8.067Z" transform="translate(-323.998 -271.551)" fill="#235fd8" opacity="0.32"/>
      <path id="Path_11842" data-name="Path 11842" d="M331.751,283.557h0a1.835,1.835,0,0,1-2.323-1.217h0l-1.989-6.3a1.9,1.9,0,0,1,1.186-2.385h0a1.834,1.834,0,0,1,2.323,1.217h0l1.99,6.306A1.9,1.9,0,0,1,331.751,283.557Z" transform="translate(-322.55 -273.557)" fill="#235fd8" opacity="0.72"/>
      <path id="Subtraction_16" data-name="Subtraction 16" d="M335.218,301.271h0a3.408,3.408,0,0,1-1.213-1.081l-4.937-7.176-2.558-8.105a2.988,2.988,0,0,0,1.361,1.5l17.971,9.42-7.151,5.192A3.282,3.282,0,0,1,335.218,301.271Z" transform="translate(-322.913 -268.65)" fill="#235fd8" opacity="0.48"/>
      <path id="Path_11865" data-name="Path 11865" d="M338.559,282.318a.888.888,0,0,1-1.233.328.939.939,0,0,1-.321-1.266.89.89,0,0,1,1.228-.332.939.939,0,0,1,.331,1.263Z" transform="translate(-318.429 -270.373)" fill="#235fd8" opacity="0.88"/>
      <path id="Path_11866" data-name="Path 11866" d="M341.021,288.292a.888.888,0,0,1-1.233.328.939.939,0,0,1-.321-1.266.89.89,0,0,1,1.227-.332.939.939,0,0,1,.329,1.263l0,.007Z" transform="translate(-317.365 -267.79)" fill="#235fd8" opacity="0.88"/>
      <path id="Path_11867" data-name="Path 11867" d="M354.3,283.87l-17.945-9.407a2.864,2.864,0,0,0-2.88.122l-1.626,1.043,1.672,5.3a1.851,1.851,0,0,1,.052.46,2.005,2.005,0,0,1,.46.977,2.028,2.028,0,0,1-.789,1.968l0,0c-.02.014-.04.029-.062.042a.566.566,0,0,1-.062.04,1.907,1.907,0,0,1-.2.107.671.671,0,0,1-.064.029,1.555,1.555,0,0,1-.149.057,1.942,1.942,0,0,1-2.458-1.289h0l-.024-.082a1.9,1.9,0,0,1-.044-.2,2.038,2.038,0,0,1,0-.626,1.823,1.823,0,0,1-.175-.321h0l-1.388-4.394-1.259.808A3.028,3.028,0,0,0,326,281.265l.4,5.785.1,1.537a3.01,3.01,0,0,0,1.6,2.474l17.951,9.41a3.317,3.317,0,0,0,4.519-1.5l5.2-10.462A3.5,3.5,0,0,0,354.3,283.87Zm-14.164-.486a2.676,2.676,0,0,1,3.711-1.008l0,0a2.827,2.827,0,0,1,.978,3.809,2.678,2.678,0,0,1-3.711,1.007A2.828,2.828,0,0,1,340.141,283.385Zm-2.2,8.125a.931.931,0,0,1,.58-1.166l10.818-4.294a.9.9,0,0,1,1.163.534l0,.011a.933.933,0,0,1-.521,1.193l-10.908,4.317A.9.9,0,0,1,337.938,291.51Zm6.71,4.241a2.828,2.828,0,0,1-.981-3.81,2.676,2.676,0,0,1,3.711-1.008l0,0a2.826,2.826,0,0,1,.978,3.808A2.678,2.678,0,0,1,344.648,295.751Z" transform="translate(-323.138 -273.309)" fill="#235fd8"/>
    </g>
  </g>
</svg>
