<svg xmlns="http://www.w3.org/2000/svg" xmlns:xlink="http://www.w3.org/1999/xlink" width="24" height="24" viewBox="0 0 24 24"><defs><clipPath id="a"><rect width="24" height="24" fill="none"/></clipPath></defs><g clip-path="url(#a)"><g transform="translate(-4729.504 -2258)"><rect width="0.757" height="3.381" transform="translate(4736.288 2261.517)" opacity="0.32"/><rect width="0.757" height="3.381" transform="translate(4739.315 2261.517)" opacity="0.32"/><path d="M62.55,0H67.09a.756.756,0,0,1,.757.755h0a.756.756,0,0,1-.757.755H62.55a.756.756,0,0,1-.757-.755h0A.756.756,0,0,1,62.55,0Z" transform="translate(4673.36 2260)"/><path d="M5.83,15.094H1.514A1.509,1.509,0,0,1,0,13.585V1.509A1.511,1.511,0,0,1,1.514,0H9.838a1.509,1.509,0,0,1,1.514,1.509V3.635H9.932a1.235,1.235,0,0,0-.489.1,1.252,1.252,0,0,0-.4.273,1.278,1.278,0,0,0-.368.9V6.181H5.847a1.235,1.235,0,0,0-.489.1,1.252,1.252,0,0,0-.4.273,1.278,1.278,0,0,0-.368.9v6.366a1.277,1.277,0,0,0,.368.9,1.252,1.252,0,0,0,.4.273,1.235,1.235,0,0,0,.473.1Zm5.521-8.913H9.932V4.908h1.419V6.181Z" transform="translate(4732.504 2264.906)"/><path d="M145.928,221.963v6.366a1.265,1.265,0,0,1-1.257,1.273h-11a1.265,1.265,0,0,1-1.257-1.273v-6.366a1.265,1.265,0,0,1,1.257-1.273h11A1.265,1.265,0,0,1,145.928,221.963Z" transform="translate(4604.68 2050.397)" opacity="0.8"/><path d="M252.516,152.617v-1.273a1.265,1.265,0,0,0-1.257-1.273H248.43a1.265,1.265,0,0,0-1.257,1.273v1.273h1.257v-1.273h2.828v1.273Z" transform="translate(4494.007 2118.471)" opacity="0.32"/></g></g></svg>