<svg width="32" height="32" viewBox="0 0 32 32" fill="none" xmlns="http://www.w3.org/2000/svg">
<path d="M3.26922 23.0596C2.85204 23.1268 2.44204 23.2328 2.04456 23.3763C1.06946 21.5074 0.477601 19.462 0.303839 17.3605C0.130077 15.259 0.377924 13.1439 1.03278 11.1398C1.68764 9.1357 2.73628 7.2831 4.11693 5.69109C5.49758 4.09909 7.18233 2.79987 9.07197 1.86995C10.9616 0.940029 13.0179 0.398209 15.1199 0.276396C17.2218 0.154583 19.3268 0.45524 21.3109 1.16066C23.295 1.86608 25.1181 2.96201 26.6729 4.38389C28.2277 5.80578 29.4827 7.52488 30.364 9.43996L30.0267 9.47938L20.4823 7.72102C20.4496 7.71563 20.4161 7.71841 20.3847 7.7291C20.3533 7.7398 20.3251 7.75809 20.3025 7.78235C20.2803 7.807 20.265 7.83706 20.2581 7.8695C20.2512 7.90195 20.2529 7.93564 20.2631 7.96721L20.767 9.72557C20.7784 9.76581 20.8024 9.80128 20.8356 9.82663C20.8689 9.85199 20.9094 9.86587 20.9511 9.86619L26.4114 9.89685L25.4124 10.0112L20.6664 10.8028C18.7666 11.2424 16.8444 11.5788 14.9083 11.8103C14.9788 11.7011 15.0403 11.5864 15.0924 11.4673C15.2237 11.3661 15.3903 11.2605 15.5919 11.1331C16.2043 10.9837 16.2974 10.5837 16.2974 10.3638V10.2407C16.2874 10.0788 16.2242 9.92481 16.1177 9.80267L16.0827 9.75887C16.0648 9.73516 16.0415 9.71602 16.0149 9.703C15.9882 9.68999 15.9588 9.68346 15.9291 9.68396H15.8679C15.6171 9.6882 15.3686 9.73257 15.1318 9.81537L14.8694 9.94285C14.6944 9.69666 14.2732 9.53414 13.5021 9.41105H13.4365C12.8075 9.45224 12.1876 9.58399 11.596 9.80223C10.4833 10.1192 9.41006 10.5617 8.39705 11.1212C6.01333 12.5322 4.85428 13.8162 4.85428 15.0427C4.86678 15.4087 4.98215 15.7637 5.18712 16.0669C5.51559 16.6118 6.19309 17.0341 7.28173 17.3504C8.23697 17.5353 9.1922 17.6934 10.1037 17.8296C11.1202 18.0539 11.6857 18.4232 11.7863 18.9248C11.772 18.9488 11.7644 18.9762 11.7644 19.0041V19.1316C11.7644 19.2108 11.7251 19.4382 11.348 19.8657C10.8973 20.3308 10.3631 20.7066 9.77348 20.9736L8.52476 21.5672C6.81621 22.2103 5.0573 22.7102 3.26616 23.0618L3.26922 23.0596ZM30.6968 10.2399C30.2644 10.4868 29.7955 10.6634 29.3077 10.7629H29.2683C28.6722 10.8422 28.0721 10.9298 27.4716 11.0222L21.6304 12.7547C21.0124 14.1088 20.4823 15.3222 20.0528 16.3683L20.0178 16.4296C19.9828 16.4866 19.8249 16.7989 18.9352 19.0015C18.6728 19.5508 18.4708 20.0213 18.3304 20.4032C18.2997 20.4909 18.1812 20.7638 17.638 22.0078L16.7632 24.0523C16.7543 24.0644 16.747 24.0777 16.7414 24.0917C16.3477 24.6103 16.1496 24.7028 15.9921 24.7203H15.944C15.918 24.7256 15.8913 24.7256 15.8653 24.7203C15.6029 24.6191 15.4839 24.4873 15.4839 24.3072C15.4839 23.771 15.9213 22.5488 16.8424 20.4251C17.7635 18.3014 18.7997 15.7134 19.9714 12.8117V12.7766C20.0526 12.635 20.1257 12.4887 20.1901 12.3386C17.8064 12.7766 16.3731 13.0395 15.9217 13.0833L15.1637 13.1932C15.1099 13.195 15.0562 13.1861 15.0058 13.167L14.6997 13.1932C14.4303 13.1991 14.1628 13.1466 13.9155 13.0395C13.5739 13.4 13.1662 13.7868 12.6799 14.2179C11.9236 14.7724 11.6481 14.8478 11.4727 14.8478H11.3988C10.8949 14.7865 10.6058 14.5004 10.6058 14.0742C10.6058 13.8718 10.7195 13.7356 11.4517 13.2918C12.0827 12.7959 12.6693 12.2458 13.2047 11.6478C13.2859 11.3351 13.4441 11.0479 13.6648 10.8124C13.6328 10.8144 13.6007 10.8144 13.5686 10.8124C12.2704 10.9667 11.0095 11.3491 9.84389 11.9421C9.0579 12.3204 8.31451 12.7816 7.62638 13.3181C7.06597 13.7702 6.61625 14.3447 6.31162 14.9976C6.27226 15.1514 6.26351 15.2131 6.25914 15.235C6.25914 15.6731 7.1339 16.0529 8.62973 16.2504C11.0047 16.6197 11.5746 16.9185 11.7981 17.1077C12.4149 17.4742 12.8811 18.0488 13.1129 18.7285V19.4233C13.1129 21.2631 10.3478 22.7644 4.40903 24.1315L2.94993 24.4128H2.90619C2.86553 24.4199 2.82395 24.4199 2.78329 24.4128H2.64683C4.74478 27.7246 7.99735 30.1367 11.7722 31.1803C15.5471 32.2239 19.5746 31.8243 23.0717 30.0593C26.5688 28.2942 29.2856 25.2899 30.6941 21.6302C32.1025 17.9705 32.1019 13.9171 30.6924 10.2578L30.6968 10.2399Z" fill="#1882FF"/>
</svg>
